<svg width="100" height="100" viewBox="0 0 100 100" fill="none" xmlns="http://www.w3.org/2000/svg">
<g clip-path="url(#clip0_3158_4498)">
<path fill-rule="evenodd" clip-rule="evenodd" d="M100 95.9091H77.8986V63.9509C77.8986 55.5859 74.4415 49.8753 66.8392 49.8753C61.0243 49.8753 57.7904 53.729 56.2852 57.4429C55.7208 58.7759 55.809 60.6328 55.809 62.4898V95.9091H33.9135C33.9135 95.9091 34.1957 39.2983 33.9135 34.1524H55.809V43.8446C57.1025 39.6068 64.0992 33.5586 75.2645 33.5586C89.1168 33.5586 100 42.4417 100 61.5701V95.9091ZM11.7709 26.4277H11.6298C4.57433 26.4277 0 21.7067 0 15.7226C0 9.62198 4.70954 5 11.9062 5C19.0969 5 23.5183 9.61039 23.6594 15.7052C23.6594 21.6893 19.0969 26.4277 11.7709 26.4277ZM2.52228 34.1524H22.0132V95.9091H2.52228V34.1524Z" fill="white"/>
</g>
<defs>
<clipPath id="clip0_3158_4498">
<rect width="100" height="90.9091" fill="white" transform="translate(0 5)"/>
</clipPath>
</defs>
</svg>
